<svg width="40" height="40" viewBox="0 0 40 40" fill="none" xmlns="http://www.w3.org/2000/svg">
<path d="M19.9964 0C8.95262 0 0 8.95548 0 20.0007C0 31.0445 8.95262 40 19.9964 40C31.0459 40 40 31.0431 40 20.0007C40 8.95548 31.0459 0 19.9964 0ZM28.5957 25.4161L25.4103 28.5972C25.4103 28.5972 20.3712 23.1904 19.995 23.1904C19.6245 23.1904 14.5839 28.5972 14.5839 28.5972L11.3971 25.4161C11.3971 25.4161 16.8096 20.4498 16.8096 20.0079C16.8096 19.5587 11.3971 14.5911 11.3971 14.5911L14.5839 11.4028C14.5839 11.4028 19.666 16.8124 19.995 16.8124C20.3268 16.8124 25.4103 11.4028 25.4103 11.4028L28.5957 14.5911C28.5957 14.5911 23.1818 19.6303 23.1818 20.0079C23.1818 20.3669 28.5957 25.4161 28.5957 25.4161Z" fill="#F78C3F"/>
</svg>
